<?xml version="1.0" encoding="UTF-8" standalone="no"?>
<svg
   xmlns:dc="http://purl.org/dc/elements/1.1/"
   xmlns:cc="http://creativecommons.org/ns#"
   xmlns:rdf="http://www.w3.org/1999/02/22-rdf-syntax-ns#"
   xmlns:svg="http://www.w3.org/2000/svg"
   xmlns="http://www.w3.org/2000/svg"
   xmlns:sodipodi="http://sodipodi.sourceforge.net/DTD/sodipodi-0.dtd"
   xmlns:inkscape="http://www.inkscape.org/namespaces/inkscape"
   id="svg8"
   version="1.1"
   >
  <defs>
      <clipPath id="grass-alt">
         <path
            style="fill:#ffffff;fill-opacity:1;stroke:none;stroke-width:0;stroke-miterlimit:4;stroke-dasharray:none;paint-order:stroke fill markers"
            d="m 957.79168,50.027955 v -5.291667 h -5.29167 V 34.152955 h -5.29166 v -5.291667 -5.291667 h -5.29167 V 34.152955 H 931.33335 V 23.569621 h -5.29167 v 5.291667 h -15.875 v -5.291667 h -5.29167 v -5.291667 h -5.29166 v 5.291667 h -5.29167 v 10.583334 h -10.58333 v -5.291667 h -5.29167 v -5.291667 h -5.29167 V 34.152955 H 862.54168 V 23.569621 h -5.29167 v -5.291667 h -5.29167 v 5.291667 h -5.29166 v 5.291667 h -10.58334 v -5.291667 -5.291667 h -5.29166 v 5.291667 h -5.29167 v 10.583334 h -5.29167 v -5.291667 h -5.29166 v -5.291667 h -5.29167 v 5.291667 h -5.29167 v 5.291667 h -5.29166 V 18.277954 h -5.29167 v 5.291667 h -5.29167 v 5.291667 h -10.58333 v -5.291667 h -5.29167 v -5.291667 h -5.29166 v 5.291667 h -5.29167 v 10.583334 h -10.58333 v -5.291667 h -5.29167 v -5.291667 h -5.29167 V 34.152955 H 730.25001 V 23.569621 h -5.29167 v -5.291667 h -5.29167 v -5.291667 h -5.29166 v 10.583334 h -5.29167 v -5.291667 h -5.29167 v -5.291667 h -5.29166 v 10.583334 h -5.29167 v 10.583334 h -5.29167 v -5.291667 h -5.29166 v -5.291667 -5.291667 h -5.29167 v 5.291667 h -5.29167 V 34.152955 H 661.45834 V 23.569621 h -5.29167 v -5.291667 h -5.29166 v 5.291667 h -5.29167 v 5.291667 H 635.00001 V 18.277954 h -5.29167 v 5.291667 h -5.29167 v 10.583334 h -5.29166 v -5.291667 h -5.29167 v -5.291667 h -5.29167 v 5.291667 h -5.29166 v 5.291667 h -5.29167 V 18.277954 h -5.29167 v 5.291667 H 587.375 v 5.291667 H 576.79167 V 23.569621 H 571.5 v -5.291667 h -5.29166 v 5.291667 h -5.29167 v 10.583334 h -10.58333 v -5.291667 h -5.29167 V 23.569621 H 539.75 V 34.152955 H 529.16667 V 23.569621 H 523.875 v -5.291667 h -5.29166 v 5.291667 h -5.29167 v 5.291667 H 502.70834 V 18.277954 h -5.29167 v 5.291667 H 492.125 v 10.583334 h -5.29166 v -5.291667 h -5.29167 V 23.569621 H 476.25 v 5.291667 h -5.29166 v 5.291667 h -5.29167 V 23.569621 H 460.375 v -5.291667 h -5.29167 v 5.291667 5.291667 H 444.5 v -5.291667 h -5.29167 v -5.291667 h -5.29166 v 5.291667 H 428.625 V 34.152955 H 418.04167 V 23.569621 H 412.75 v 5.291667 h -5.29167 v 5.291667 H 396.875 V 23.569621 h -5.29167 v -5.291667 h -5.29166 v 5.291667 H 381 v 5.291667 H 370.41667 V 23.569621 H 365.125 v -5.291667 h -5.29167 v 15.875001 h -5.29166 V 28.861288 H 349.25 v -5.291667 h -5.29167 v 5.291667 h -5.29166 v 5.291667 H 333.375 V 23.569621 h -5.29167 v -5.291667 h -5.29167 v 10.583334 h -10.58333 v -5.291667 h -5.29167 V 18.277954 H 301.625 v 5.291667 h -5.29167 V 34.152955 H 285.75 V 23.569621 h -5.29167 v -5.291667 h -5.29166 v 10.583334 h -5.29166 v 5.291667 h -5.29167 V 23.569621 h -5.29167 V 12.986287 h -5.29166 v 5.291667 h -5.29167 v 5.291667 h -5.29167 V 12.986287 h -5.29166 v 5.291667 h -5.29167 v 5.291667 h -5.29167 V 34.152955 H 216.95834 V 23.569621 h -5.29167 v 5.291667 h -5.29166 v 5.291667 H 195.79167 V 23.569621 h -5.29166 v -5.291667 h -5.29167 v 5.291667 h -5.29167 v 5.291667 h -10.58333 v -5.291667 h -5.29167 V 18.277954 H 158.75 v 15.875001 h -5.29166 v -5.291667 h -5.29167 V 23.569621 H 142.875 v 5.291667 h -5.29166 v 5.291667 h -5.29167 V 23.569621 H 127 v -5.291667 h -5.29166 V 28.861288 H 111.125 v -5.291667 h -5.29166 v -5.291667 h -5.29167 v 5.291667 H 95.250003 V 34.152955 H 84.666669 V 23.569621 h -5.291666 v 5.291667 h -5.291667 v 5.291667 H 63.500002 V 23.569621 h -5.291667 v -5.291667 h -5.291666 v 5.291667 h -5.291667 v 5.291667 H 31.750001 V 23.569621 H 26.458334 V 34.152955 H 15.875 V 23.569621 H 10.583333 V 34.152955 H 5.2916668 V 44.736288 H 0 V 12.7 0 h 958.79681 v 12.7 37.327955 z"/>
      </clipPath>
   </defs>
  
</svg>
