<?xml version="1.0" encoding="UTF-8" standalone="no"?>
<svg
   xmlns:dc="http://purl.org/dc/elements/1.1/"
   xmlns:cc="http://creativecommons.org/ns#"
   xmlns:rdf="http://www.w3.org/1999/02/22-rdf-syntax-ns#"
   xmlns:svg="http://www.w3.org/2000/svg"
   xmlns="http://www.w3.org/2000/svg"
   id="svg8"
   version="1.1"
   viewBox="0 0 957.79169 37.041668"
   height="140"
   width="3620"
   style="fill:#eee;">
  <g
     transform="translate(-66.486896,-131.36976)"
     id="layer1">
    <path
       id="rect815"
       transform="scale(0.26458333)"
       d="m 1151.2891,496.51562 v 20 h -20 v 20 h -20 v 20 20 h -40 v -20 -20 h -20 v 20 h -20 v 20 h -40.00004 v -40 h -20 v -20 h -20 v 20 h -20 v 20 h -40 v -20 h -20 v -20 h -20 v 20 20 20 h -20 v -20 h -20 v -20 h -20 v 20 h -20 v 20 h -20 v -20 -20 h -20 v -20 h -20 v 20 20 h -40 v -20 h -20 v -20 h -20 v 20 h -20 v 40 h -40 v -20 -20 h -20 v 20 h -20 v 20 h -40 v -40 h -20 v -20 h -20 v 20 h -20 v 20 h -60 v -20 h -20 v 20 20 h -40 v -20 -20 h -20 v 20 20 h -20 v 40 h -20 v 20 h 320 280 160.00004 60 260 20 260 220 180 100 180 220 260 20 260 60 160 280 320 v -20 h -20 v -40 h -20 v -20 -20 h -20 v 20 20 h -40 v -20 -20 h -20 v 20 h -60 v -20 h -20 v -20 h -20 v 20 h -20 v 40 h -40 v -20 h -20 v -20 h -20 v 20 20 h -40 v -40 h -20 v -20 h -20 v 20 h -20 v 20 h -40 v -20 -20 h -20 v 20 h -20 v 20 20 h -20 v -20 h -20 v -20 h -20 v 20 h -20 v 20 h -20 v -20 -20 -20 h -20 v 20 h -20 v 20 h -40 v -20 h -20 v -20 h -20 v 20 h -20 v 40 h -40 v -20 h -20 v -20 h -20 v 20 20 h -40 v -20 -20 h -20 v -20 h -20 v -20 h -20 v 20 20 h -20 v -20 h -20 v -20 h -20 v 20 20 h -20 v 20 20 h -20 v -20 h -20 v -20 -20 h -20 v 20 h -20 v 20 20 h -40 v -40 h -20 v -20 h -20 v 20 h -20 v 20 h -40 v -20 -20 h -20 v 20 h -20 v 20 20 h -20 v -20 h -20 v -20 h -20 v 20 h -20 v 20 h -20 v -20 -20 -20 h -20 v 20 h -20 v 20 h -40 v -20 h -20 v -20 h -20 v 20 h -20 v 40 h -40 v -20 h -20 v -20 h -20 v 20 20 h -40 v -40 h -20 v -20 h -20 v 20 h -20 v 20 h -40 v -20 -20 h -20 v 20 h -20 v 20 20 h -20 v -20 h -20 v -20 h -20 v 20 h -20 v 20 h -20 v -20 -20 h -20 v -20 h -20 v 20 20 h -40 v -20 h -20 v -20 h -20 v 20 h -20 v 40 h -40 v -20 -20 h -20 v 20 h -20 v 20 h -40 v -40 h -20 v -20 h -20 v 20 h -20 v 20 h -40 v -20 h -20 v -20 h -20 v 20 20 20 h -20 v -20 h -20 v -20 h -20 v 20 h -20 v 20 h -20 v -20 -20 h -20 v -20 h -20 v 20 20 h -40 v -20 h -20 v -20 h -20 v 20 h -20 v 40 h -40 v -20 -20 h -20 v -20 h -20 v 20 20 h -20 v 20 h -20 v -20 -20 h -20 v -20 -20 h -20 v 20 h -20 v 20 h -20 v -20 -20 z"
       style="fill-opacity:1;stroke:none;stroke-width:0;stroke-miterlimit:4;stroke-dasharray:none" />
  </g>
</svg>
